<svg width="48" height="48" viewBox="0 0 48 48" fill="none" xmlns="http://www.w3.org/2000/svg">
<path d="M23.9062 47.8124C36.9844 47.8124 47.8124 36.961 47.8124 23.9062C47.8124 10.8281 36.961 1.92008e-07 23.8828 1.24068e-07C10.8281 5.62509e-08 -5.62509e-08 10.8281 -1.2419e-07 23.9062C-1.92008e-07 36.961 10.8516 47.8124 23.9062 47.8124ZM23.9062 43.8282C12.8438 43.8282 4.00782 34.9688 4.00782 23.9062C4.00782 12.8438 12.8203 3.98438 23.8828 3.98438C34.9454 3.98438 43.8282 12.8438 43.8282 23.9062C43.8282 34.9688 34.9688 43.8282 23.9062 43.8282ZM21.3282 35.039C22.1016 35.039 22.7578 34.664 23.2266 33.9376L33.9376 17.0859C34.1954 16.6172 34.5 16.1016 34.5 15.5859C34.5 14.5312 33.5624 13.8516 32.5782 13.8516C31.9922 13.8516 31.4062 14.2266 30.961 14.9062L21.2344 30.5156L16.6172 24.539C16.0547 23.789 15.5391 23.6016 14.8828 23.6016C13.875 23.6016 13.0781 24.4218 13.0781 25.4532C13.0781 25.9688 13.2891 26.461 13.6172 26.9062L19.3359 33.9376C19.9219 34.711 20.5546 35.039 21.3282 35.039Z" fill="#4DC6B2"/>
</svg>
