<svg width="15" height="15" viewBox="0 0 15 15" fill="none" xmlns="http://www.w3.org/2000/svg">
<path d="M0.856934 7.76284C0.856934 8.173 1.20013 8.50779 1.60191 8.50779H7.01765V13.9236C7.01765 14.3254 7.35247 14.6685 7.76263 14.6685C8.17279 14.6685 8.516 14.3254 8.516 13.9236V8.50779H13.9234C14.3251 8.50779 14.6683 8.173 14.6683 7.76284C14.6683 7.35268 14.3251 7.00949 13.9234 7.00949H8.516V1.60213C8.516 1.20034 8.17279 0.857147 7.76263 0.857147C7.35247 0.857147 7.01765 1.20034 7.01765 1.60213V7.00949H1.60191C1.20013 7.00949 0.856934 7.35268 0.856934 7.76284Z" fill="#040415"/>
</svg>
