<svg width="18" height="13" viewBox="0 0 18 13" fill="none" xmlns="http://www.w3.org/2000/svg">
<path d="M5.18318 2.31247H16.6174C16.994 2.31247 17.2954 2.01949 17.2954 1.64282C17.2954 1.25778 16.994 0.964809 16.6174 0.964809H5.18318C4.79813 0.964809 4.50516 1.25778 4.50516 1.64282C4.50516 2.01949 4.79813 2.31247 5.18318 2.31247ZM5.18318 7.37664H16.6174C16.994 7.37664 17.2954 7.0753 17.2954 6.69862C17.2954 6.32195 16.994 6.02898 16.6174 6.02898H5.18318C4.79813 6.02898 4.50516 6.32195 4.50516 6.69862C4.50516 7.0753 4.79813 7.37664 5.18318 7.37664ZM5.18318 12.4325H16.6174C16.994 12.4325 17.2954 12.1395 17.2954 11.7628C17.2954 11.3778 16.994 11.0848 16.6174 11.0848H5.18318C4.79813 11.0848 4.50516 11.3778 4.50516 11.7628C4.50516 12.1395 4.79813 12.4325 5.18318 12.4325ZM1.4834 2.68914C2.06934 2.68914 2.53808 2.22039 2.53808 1.64282C2.53808 1.05689 2.06934 0.588135 1.4834 0.588135C0.897461 0.588135 0.428711 1.05689 0.428711 1.64282C0.428711 2.22039 0.897461 2.68914 1.4834 2.68914ZM1.4834 7.75332C2.06934 7.75332 2.53808 7.28457 2.53808 6.69862C2.53808 6.11269 2.06934 5.64394 1.4834 5.64394C0.897461 5.64394 0.428711 6.11269 0.428711 6.69862C0.428711 7.28457 0.897461 7.75332 1.4834 7.75332ZM1.4834 12.8175C2.06934 12.8175 2.53808 12.3404 2.53808 11.7628C2.53808 11.1769 2.06934 10.7081 1.4834 10.7081C0.897461 10.7081 0.428711 11.1769 0.428711 11.7628C0.428711 12.3404 0.897461 12.8175 1.4834 12.8175Z" fill="black"/>
</svg>
