<svg width="18" height="16" viewBox="0 0 18 16" fill="none" xmlns="http://www.w3.org/2000/svg">
<path d="M3.05706 15.5697H14.4912C16.2406 15.5697 17.1112 14.6992 17.1112 12.9748V2.75441C17.1112 1.03008 16.2406 0.159546 14.4912 0.159546H3.05706C1.30762 0.159546 0.428711 1.02171 0.428711 2.75441V12.9748C0.428711 14.7075 1.30762 15.5697 3.05706 15.5697ZM2.9315 14.222C2.18653 14.222 1.77637 13.8287 1.77637 13.0502V5.15676C1.77637 4.38667 2.18653 3.98488 2.9315 3.98488H14.6C15.345 3.98488 15.7636 4.38667 15.7636 5.15676V13.0502C15.7636 13.8287 15.345 14.222 14.6 14.222H2.9315ZM7.14188 6.98991H7.63571C7.92871 6.98991 8.02078 6.9062 8.02078 6.61323V6.11937C8.02078 5.8264 7.92871 5.73432 7.63571 5.73432H7.14188C6.84891 5.73432 6.74847 5.8264 6.74847 6.11937V6.61323C6.74847 6.9062 6.84891 6.98991 7.14188 6.98991ZM9.92092 6.98991H10.4148C10.7077 6.98991 10.8081 6.9062 10.8081 6.61323V6.11937C10.8081 5.8264 10.7077 5.73432 10.4148 5.73432H9.92092C9.62792 5.73432 9.5275 5.8264 9.5275 6.11937V6.61323C9.5275 6.9062 9.62792 6.98991 9.92092 6.98991ZM12.6999 6.98991H13.1938C13.4867 6.98991 13.5872 6.9062 13.5872 6.61323V6.11937C13.5872 5.8264 13.4867 5.73432 13.1938 5.73432H12.6999C12.4069 5.73432 12.3149 5.8264 12.3149 6.11937V6.61323C12.3149 6.9062 12.4069 6.98991 12.6999 6.98991ZM4.36286 9.72709H4.84835C5.1497 9.72709 5.24177 9.64338 5.24177 9.35038V8.85652C5.24177 8.56359 5.1497 8.47988 4.84835 8.47988H4.36286C4.06153 8.47988 3.96945 8.56359 3.96945 8.85652V9.35038C3.96945 9.64338 4.06153 9.72709 4.36286 9.72709ZM7.14188 9.72709H7.63571C7.92871 9.72709 8.02078 9.64338 8.02078 9.35038V8.85652C8.02078 8.56359 7.92871 8.47988 7.63571 8.47988H7.14188C6.84891 8.47988 6.74847 8.56359 6.74847 8.85652V9.35038C6.74847 9.64338 6.84891 9.72709 7.14188 9.72709ZM9.92092 9.72709H10.4148C10.7077 9.72709 10.8081 9.64338 10.8081 9.35038V8.85652C10.8081 8.56359 10.7077 8.47988 10.4148 8.47988H9.92092C9.62792 8.47988 9.5275 8.56359 9.5275 8.85652V9.35038C9.5275 9.64338 9.62792 9.72709 9.92092 9.72709ZM12.6999 9.72709H13.1938C13.4867 9.72709 13.5872 9.64338 13.5872 9.35038V8.85652C13.5872 8.56359 13.4867 8.47988 13.1938 8.47988H12.6999C12.4069 8.47988 12.3149 8.56359 12.3149 8.85652V9.35038C12.3149 9.64338 12.4069 9.72709 12.6999 9.72709ZM4.36286 12.4726H4.84835C5.1497 12.4726 5.24177 12.3805 5.24177 12.0876V11.5937C5.24177 11.3007 5.1497 11.217 4.84835 11.217H4.36286C4.06153 11.217 3.96945 11.3007 3.96945 11.5937V12.0876C3.96945 12.3805 4.06153 12.4726 4.36286 12.4726ZM7.14188 12.4726H7.63571C7.92871 12.4726 8.02078 12.3805 8.02078 12.0876V11.5937C8.02078 11.3007 7.92871 11.217 7.63571 11.217H7.14188C6.84891 11.217 6.74847 11.3007 6.74847 11.5937V12.0876C6.74847 12.3805 6.84891 12.4726 7.14188 12.4726ZM9.92092 12.4726H10.4148C10.7077 12.4726 10.8081 12.3805 10.8081 12.0876V11.5937C10.8081 11.3007 10.7077 11.217 10.4148 11.217H9.92092C9.62792 11.217 9.5275 11.3007 9.5275 11.5937V12.0876C9.5275 12.3805 9.62792 12.4726 9.92092 12.4726Z" fill="#040415"/>
</svg>
