<svg width="17" height="17" viewBox="0 0 17 17" fill="none" xmlns="http://www.w3.org/2000/svg">
<path d="M0.678711 7.13583C0.678711 10.7652 3.63168 13.7181 7.26102 13.7181C8.69625 13.7181 10.0078 13.2562 11.0884 12.4809L15.1466 16.5474C15.3363 16.7371 15.5838 16.8278 15.8477 16.8278C16.4087 16.8278 16.7963 16.4071 16.7963 15.8545C16.7963 15.5906 16.6973 15.3513 16.5241 15.1781L12.4906 11.1198C13.3402 10.0146 13.8433 8.63708 13.8433 7.13583C13.8433 3.50648 10.8904 0.553513 7.26102 0.553513C3.63168 0.553513 0.678711 3.50648 0.678711 7.13583ZM2.08921 7.13583C2.08921 4.28185 4.40704 1.96401 7.26102 1.96401C10.115 1.96401 12.4328 4.28185 12.4328 7.13583C12.4328 9.98978 10.115 12.3076 7.26102 12.3076C4.40704 12.3076 2.08921 9.98978 2.08921 7.13583Z" fill="#9B9BA1"/>
</svg>
