<svg width="13" height="13" viewBox="0 0 13 13" fill="none" xmlns="http://www.w3.org/2000/svg">
<path d="M0.571289 6.78653C0.571289 7.15568 0.880162 7.45699 1.24177 7.45699H6.11593V12.3312C6.11593 12.6928 6.41727 13.0016 6.78641 13.0016C7.15556 13.0016 7.46445 12.6928 7.46445 12.3312V7.45699H12.3311C12.6927 7.45699 13.0015 7.15568 13.0015 6.78653C13.0015 6.41739 12.6927 6.10852 12.3311 6.10852H7.46445V1.24189C7.46445 0.880284 7.15556 0.571411 6.78641 0.571411C6.41727 0.571411 6.11593 0.880284 6.11593 1.24189V6.10852H1.24177C0.880162 6.10852 0.571289 6.41739 0.571289 6.78653Z" fill="white"/>
</svg>
