<svg width="17" height="30" viewBox="0 0 17 30" fill="none" xmlns="http://www.w3.org/2000/svg">
<path d="M0.428711 15.2456C0.428711 15.664 0.579381 16.0324 0.897461 16.3504L14.1731 29.3247C14.4577 29.6261 14.826 29.7769 15.2613 29.7769C16.1319 29.7769 16.8014 29.1239 16.8014 28.2533C16.8014 27.8181 16.6173 27.4497 16.3494 27.1651L4.16197 15.2456L16.3494 3.32588C16.6173 3.04129 16.8014 2.65625 16.8014 2.23772C16.8014 1.36718 16.1319 0.714279 15.2613 0.714279C14.826 0.714279 14.4577 0.864949 14.1731 1.14955L0.897461 14.1406C0.579381 14.442 0.428711 14.827 0.428711 15.2456Z" fill="#040415"/>
</svg>
